<svg fill="#FFFFFF" xmlns="http://www.w3.org/2000/svg"  viewBox="0 0 50 50" width="50px" height="50px"><path d="M20.13,32.5c-2.79-1.69-4.53-4.77-4.53-8.04V8.9c0-1.63,0.39-3.19,1.11-4.57L7.54,9.88C4.74,11.57,3,14.65,3,17.92v14.15	c0,1.59,0.42,3.14,1.16,4.5c0.69,1.12,1.67,2.06,2.88,2.74c2.53,1.42,5.51,1.36,7.98-0.15l8.02-4.9L20.13,32.5z M42.84,27.14	l-8.44-5.05v2.29c0,3.25-1.72,6.33-4.49,8.02l-13.84,8.47c-1.52,0.93-3.19,1.42-4.87,1.46l8.93,5.41c1.5,0.91,3.19,1.36,4.87,1.36	s3.37-0.45,4.87-1.36l9.08-5.5l3.52-2.13c0.27-0.16,0.53-0.34,0.78-0.54c0.08-0.05,0.16-0.11,0.23-0.16	c0.65-0.53,1.23-1.13,1.71-1.79c0.02-0.03,0.04-0.06,0.06-0.09c0.77-1.19,1.2-2.59,1.19-4.06C46.43,30.85,45.09,28.48,42.84,27.14z M42.46,9.88l-9.57-5.79l-3.02-1.83C29.45,2,29.01,1.79,28.56,1.61c-0.49-0.21-1-0.37-1.51-0.47c-1.84-0.38-3.76-0.08-5.46,0.89	c-2.5,1.43-3.99,3.99-3.99,6.87v9.6l2.8-1.65c2.84-1.67,6.36-1.66,9.19,0.03l14.28,8.54c1.29,0.78,2.35,1.81,3.12,3.02L47,17.92	C47,14.65,45.26,11.57,42.46,9.88z"/></svg>